<mxfile host="app.diagrams.net" modified="2024-08-03T01:01:10.679Z" agent="Mozilla/5.0 (Windows NT 10.0; Win64; x64) AppleWebKit/537.36 (KHTML, like Gecko) Chrome/127.0.0.0 Safari/537.36" etag="bTFF29aaQLhbKmJPDgyA" version="24.2.3" type="device">
  <diagram name="PÃ¡gina-1" id="631YwQ910ZKyEsJBQnA5">
    <mxGraphModel dx="880" dy="460" grid="1" gridSize="10" guides="1" tooltips="1" connect="1" arrows="1" fold="1" page="1" pageScale="1" pageWidth="827" pageHeight="1169" math="0" shadow="0">
      <root>
        <mxCell id="0" />
        <mxCell id="1" parent="0" />
        <mxCell id="cvwtrpblBETE6t91wQme-3" value="" style="edgeStyle=orthogonalEdgeStyle;rounded=0;orthogonalLoop=1;jettySize=auto;html=1;endArrow=ERmany;endFill=0;" edge="1" parent="1" source="cvwtrpblBETE6t91wQme-1" target="cvwtrpblBETE6t91wQme-2">
          <mxGeometry relative="1" as="geometry" />
        </mxCell>
        <mxCell id="cvwtrpblBETE6t91wQme-15" style="edgeStyle=orthogonalEdgeStyle;rounded=0;orthogonalLoop=1;jettySize=auto;html=1;entryX=0;entryY=0.25;entryDx=0;entryDy=0;strokeColor=default;align=center;verticalAlign=middle;fontFamily=Helvetica;fontSize=11;fontColor=default;labelBackgroundColor=default;endArrow=none;endFill=0;" edge="1" parent="1" source="cvwtrpblBETE6t91wQme-1" target="cvwtrpblBETE6t91wQme-6">
          <mxGeometry relative="1" as="geometry">
            <Array as="points">
              <mxPoint x="380" y="230" />
              <mxPoint x="380" y="320" />
            </Array>
          </mxGeometry>
        </mxCell>
        <mxCell id="cvwtrpblBETE6t91wQme-1" value="Clientes" style="whiteSpace=wrap;html=1;aspect=fixed;" vertex="1" parent="1">
          <mxGeometry x="190" y="170" width="80" height="80" as="geometry" />
        </mxCell>
        <mxCell id="cvwtrpblBETE6t91wQme-2" value="Telefono" style="whiteSpace=wrap;html=1;aspect=fixed;" vertex="1" parent="1">
          <mxGeometry x="490" y="170" width="80" height="80" as="geometry" />
        </mxCell>
        <mxCell id="cvwtrpblBETE6t91wQme-4" value="Proveedores" style="whiteSpace=wrap;html=1;aspect=fixed;" vertex="1" parent="1">
          <mxGeometry x="190" y="300" width="80" height="80" as="geometry" />
        </mxCell>
        <mxCell id="cvwtrpblBETE6t91wQme-10" style="rounded=0;orthogonalLoop=1;jettySize=auto;html=1;entryX=0;entryY=0.5;entryDx=0;entryDy=0;endArrow=ERmany;endFill=0;exitX=1;exitY=0.25;exitDx=0;exitDy=0;edgeStyle=orthogonalEdgeStyle;" edge="1" parent="1" source="cvwtrpblBETE6t91wQme-5" target="cvwtrpblBETE6t91wQme-9">
          <mxGeometry relative="1" as="geometry" />
        </mxCell>
        <mxCell id="cvwtrpblBETE6t91wQme-16" style="edgeStyle=orthogonalEdgeStyle;rounded=0;orthogonalLoop=1;jettySize=auto;html=1;entryX=0.5;entryY=1;entryDx=0;entryDy=0;strokeColor=default;align=center;verticalAlign=middle;fontFamily=Helvetica;fontSize=11;fontColor=default;labelBackgroundColor=default;endArrow=ERmany;endFill=0;" edge="1" parent="1" source="cvwtrpblBETE6t91wQme-5" target="cvwtrpblBETE6t91wQme-4">
          <mxGeometry relative="1" as="geometry" />
        </mxCell>
        <mxCell id="cvwtrpblBETE6t91wQme-5" value="Productos" style="whiteSpace=wrap;html=1;aspect=fixed;" vertex="1" parent="1">
          <mxGeometry x="190" y="440" width="80" height="80" as="geometry" />
        </mxCell>
        <mxCell id="cvwtrpblBETE6t91wQme-11" style="edgeStyle=orthogonalEdgeStyle;rounded=0;orthogonalLoop=1;jettySize=auto;html=1;entryX=1;entryY=0.5;entryDx=0;entryDy=0;endArrow=ERmany;endFill=0;" edge="1" parent="1" source="cvwtrpblBETE6t91wQme-6" target="cvwtrpblBETE6t91wQme-9">
          <mxGeometry relative="1" as="geometry" />
        </mxCell>
        <mxCell id="cvwtrpblBETE6t91wQme-6" value="Ventas" style="whiteSpace=wrap;html=1;aspect=fixed;" vertex="1" parent="1">
          <mxGeometry x="490" y="300" width="80" height="80" as="geometry" />
        </mxCell>
        <mxCell id="cvwtrpblBETE6t91wQme-13" style="edgeStyle=orthogonalEdgeStyle;rounded=0;orthogonalLoop=1;jettySize=auto;html=1;endArrow=ERmany;endFill=0;" edge="1" parent="1" source="cvwtrpblBETE6t91wQme-7" target="cvwtrpblBETE6t91wQme-5">
          <mxGeometry relative="1" as="geometry" />
        </mxCell>
        <mxCell id="cvwtrpblBETE6t91wQme-7" value="Categoria" style="whiteSpace=wrap;html=1;aspect=fixed;" vertex="1" parent="1">
          <mxGeometry x="490" y="440" width="80" height="80" as="geometry" />
        </mxCell>
        <mxCell id="cvwtrpblBETE6t91wQme-9" value="Productos - Ventas" style="whiteSpace=wrap;html=1;aspect=fixed;" vertex="1" parent="1">
          <mxGeometry x="340" y="360" width="80" height="80" as="geometry" />
        </mxCell>
      </root>
    </mxGraphModel>
  </diagram>
</mxfile>
